<svg xmlns="http://www.w3.org/2000/svg" width="14.001" height="16" viewBox="0 0 14.001 16"><path d="M13.759-3.212,12.7-3.822l.813-.219a.483.483,0,0,0,.341-.591L13.731-5.1a.483.483,0,0,0-.591-.341l-2.212.594L8.931-6l1.994-1.153,2.213.594a.483.483,0,0,0,.591-.341l.125-.466a.483.483,0,0,0-.341-.591L12.7-8.175l1.056-.609a.485.485,0,0,0,.178-.659l-.484-.837a.485.485,0,0,0-.659-.178l-1.056.609.219-.813a.483.483,0,0,0-.341-.591l-.466-.125a.483.483,0,0,0-.591.341L9.962-8.825,8-7.694v-2.422l1.678-1.678a.5.5,0,0,0,0-.706l-.353-.353a.5.5,0,0,0-.706,0L8-12.237V-13.5a.5.5,0,0,0-.5-.5h-1a.5.5,0,0,0-.5.5v1.263l-.616-.616a.5.5,0,0,0-.706,0l-.356.353a.5.5,0,0,0,0,.706L6-10.116v2.422L4.038-8.825l-.594-2.212a.483.483,0,0,0-.591-.341l-.466.125a.483.483,0,0,0-.341.591l.219.813-1.056-.609a.482.482,0,0,0-.659.178l-.484.834a.482.482,0,0,0,.178.659L1.3-8.178l-.812.219a.485.485,0,0,0-.344.594L.269-6.9a.483.483,0,0,0,.591.341l2.212-.594L5.066-6,3.072-4.847.859-5.441A.483.483,0,0,0,.269-5.1l-.125.466a.483.483,0,0,0,.341.591l.813.219L.241-3.212a.485.485,0,0,0-.178.659l.484.837a.485.485,0,0,0,.659.178l1.056-.609-.219.813a.483.483,0,0,0,.341.591l.466.125a.483.483,0,0,0,.591-.341l.594-2.212L6-4.3v2.422L4.319-.2a.5.5,0,0,0,0,.706l.353.353a.5.5,0,0,0,.706,0L5.994.241V1.5a.5.5,0,0,0,.5.5h1a.5.5,0,0,0,.5-.5V.237l.616.616a.5.5,0,0,0,.706,0L9.669.5a.5.5,0,0,0,0-.706L8-1.884V-4.306L9.962-3.175l.594,2.212a.483.483,0,0,0,.591.341l.466-.125a.483.483,0,0,0,.341-.591l-.219-.812,1.056.609a.482.482,0,0,0,.659-.178l.484-.837A.477.477,0,0,0,13.759-3.212Z" transform="translate(0.001 14)" fill="#3597d1"/></svg>