<svg height="20.946" viewBox="0 0 18.848 20.946" width="18.848" xmlns="http://www.w3.org/2000/svg"><g fill="#3597d1"><path d="m20.049 77.3a.717.717 0 0 0 -.976.27 2.128 2.128 0 0 1 -1.8 1.035 2.539 2.539 0 0 1 -2.351-1.035.682.682 0 0 0 -.611-.317.741.741 0 0 0 -.6.353 2.528 2.528 0 0 1 -2.175 1.176 2.881 2.881 0 0 1 -2.436-1.182.717.717 0 0 0 -.6-.329.705.705 0 0 0 -.6.317 3.1 3.1 0 0 1 -2.786 1.176 2.351 2.351 0 0 1 -2.069-1.035.717.717 0 0 0 -.905-.294.729.729 0 0 0 -.317 1.011 3.786 3.786 0 0 0 3.257 1.869 4.7 4.7 0 0 0 3.457-1.105 4.4 4.4 0 0 0 2.986 1.176h.141a4.138 4.138 0 0 0 2.8-1.105 4.08 4.08 0 0 0 2.936 1.038 3.527 3.527 0 0 0 2.986-1.775.764.764 0 0 0 -.059-1.07.611.611 0 0 0 -.282-.176z" transform="translate(-1.733 -59.443)"/><path d="m4.783 76.2c.259.611.694.494 1.752.212l.247-.071c-2.282 2.525-2.352 6.334-2.129 10.059a.741.741 0 0 0 .729.705.729.729 0 0 0 .682-.776c-.176-3.527-.141-7.172 2.069-9.265a4.08 4.08 0 0 0 .341 1.836.764.764 0 0 0 .611.353.729.729 0 0 0 .388-.129.776.776 0 0 0 .235-1.035 6.866 6.866 0 0 1 .082-2.974.764.764 0 0 0 -.153-.741.741.741 0 0 0 -.717-.2l-1.046.282c-.788.223-2.069.588-2.434.67a.658.658 0 0 0 -.364.106.752.752 0 0 0 -.294.964z" transform="translate(8.032 -69.959)"/><path d="m2.211 78.088a.752.752 0 0 0 .212 1.035.753.753 0 0 0 .388.118.706.706 0 0 0 .611-.341 4.115 4.115 0 0 0 .353-1.834c2.163 2.069 2.2 5.7 2.022 9.253a.741.741 0 0 0 .682.788.752.752 0 0 0 .729-.705c.176-3.727.141-7.548-2.14-10.064l.27.071c1.035.282 1.47.4 1.728-.212a.764.764 0 0 0 -.306-.941.658.658 0 0 0 -.364-.106c-.364-.082-1.622-.435-2.351-.647l-1.035-.303a.694.694 0 0 0 -.705.212.717.717 0 0 0 -.165.741 7.23 7.23 0 0 1 .071 2.939z" transform="translate(-.507 -69.887)"/><path d="m3.657 77.859a.682.682 0 0 0 .306.071.753.753 0 0 0 .658-.435 7.347 7.347 0 0 1 1.035-1.695c0 3.41 0 11.5.082 14.72a.741.741 0 0 0 .717.717.764.764 0 0 0 .705-.776c-.129-3.221-.118-11.346-.082-14.7a7.972 7.972 0 0 1 1.176 1.728.705.705 0 0 0 .941.364.741.741 0 0 0 .447-.952v-.071a11.757 11.757 0 0 0 -2.752-3.43.694.694 0 0 0 -.964 0 10.805 10.805 0 0 0 -2.645 3.433.776.776 0 0 0 .353 1.035z" transform="translate(3.326 -73.208)"/></g></svg>