<svg xmlns="http://www.w3.org/2000/svg" width="4.5" height="12" viewBox="0 0 4.5 12"><path d="M-1.781-.557a.469.469,0,0,0-.469.469v1.12a.469.469,0,0,0,.469.469H1.781a.469.469,0,0,0,.469-.469V-.088a.469.469,0,0,0-.469-.469H1.313V-5.531A.469.469,0,0,0,.844-6H-1.781a.469.469,0,0,0-.469.469v1.12a.469.469,0,0,0,.469.469h.469V-.557ZM0-10.5A1.687,1.687,0,0,0-1.687-8.812,1.687,1.687,0,0,0,0-7.125,1.687,1.687,0,0,0,1.688-8.812,1.688,1.688,0,0,0,0-10.5Z" transform="translate(2.25 10.5)" fill="#fff"/></svg>