<svg xmlns="http://www.w3.org/2000/svg" width="8" height="16" viewBox="0 0 8 16"><path d="M6-2A2,2,0,0,0,5-3.732V-9a1,1,0,0,0-1-1A1,1,0,0,0,3-9v5.268A2,2,0,0,0,2-2,2,2,0,0,0,4,0,2,2,0,0,0,6-2ZM7-4.645V-11a3,3,0,0,0-3-3,3,3,0,0,0-3,3v6.355A3.984,3.984,0,0,0,0-2.021,4.012,4.012,0,0,0,3.972,2H4A4,4,0,0,0,8-2,3.984,3.984,0,0,0,7-4.645ZM6.5-2A2.5,2.5,0,0,1,4,.5H3.982A2.51,2.51,0,0,1,1.5-2.013a2.909,2.909,0,0,1,1-2.065V-11A1.5,1.5,0,0,1,4-12.5,1.5,1.5,0,0,1,5.5-11v6.922A2.9,2.9,0,0,1,6.5-2Z" transform="translate(0 14)" fill="#fff"/></svg>