<svg xmlns="http://www.w3.org/2000/svg" width="17.997" height="11.997" viewBox="0 0 17.997 11.997"><path d="M17.566-2a3.609,3.609,0,0,1-1.809-.716,1.212,1.212,0,0,0-1.506,0A3.915,3.915,0,0,1,9.7-2.766a1.16,1.16,0,0,0-1.459.056A3.916,3.916,0,0,1,3.7-2.763,1.178,1.178,0,0,0,2.228-2.7a3.543,3.543,0,0,1-1.8.7A.485.485,0,0,0,0-1.509V-.5A.493.493,0,0,0,.522,0,5.616,5.616,0,0,0,3-.812a5.992,5.992,0,0,0,6,0,5.992,5.992,0,0,0,6,0,5.777,5.777,0,0,0,2.472.806A.493.493,0,0,0,18-.506v-.987A.5.5,0,0,0,17.566-2Zm0-4.5a3.609,3.609,0,0,1-1.809-.716,1.212,1.212,0,0,0-1.506,0A3.915,3.915,0,0,1,9.7-7.266a1.16,1.16,0,0,0-1.459.056A3.916,3.916,0,0,1,3.7-7.263,1.178,1.178,0,0,0,2.228-7.2a3.543,3.543,0,0,1-1.8.7A.485.485,0,0,0,0-6.009V-5a.493.493,0,0,0,.522.5A5.616,5.616,0,0,0,3-5.312a5.992,5.992,0,0,0,6,0,5.992,5.992,0,0,0,6,0,5.777,5.777,0,0,0,2.472.806.493.493,0,0,0,.522-.5v-.987A.5.5,0,0,0,17.566-6.5Zm0-4.5a3.638,3.638,0,0,1-1.809-.716,1.212,1.212,0,0,0-1.506,0A3.915,3.915,0,0,1,9.7-11.766a1.16,1.16,0,0,0-1.459.056A3.916,3.916,0,0,1,3.7-11.763a1.178,1.178,0,0,0-1.472.063,3.543,3.543,0,0,1-1.8.7A.485.485,0,0,0,0-10.509V-9.5A.493.493,0,0,0,.522-9,5.616,5.616,0,0,0,3-9.812a5.992,5.992,0,0,0,6,0,5.992,5.992,0,0,0,6,0,5.777,5.777,0,0,0,2.472.806.493.493,0,0,0,.522-.5v-.987A.5.5,0,0,0,17.566-11Z" transform="translate(0 11.998)" fill="#fff"/></svg>