<svg xmlns="http://www.w3.org/2000/svg" width="15.998" height="15.998" viewBox="0 0 15.998 15.998"><path d="M5.9-3.191l.856-.856A.914.914,0,0,0,7-4,1,1,0,0,0,8-5,1,1,0,0,0,7-6,1,1,0,0,0,6-5a.915.915,0,0,0,.05.244L5.194-3.9l-3.65-3.65a.5.5,0,0,0-.781.094A6.416,6.416,0,0,0,1.878.119,6.417,6.417,0,0,0,9.45,1.234.492.492,0,0,0,9.544.453ZM6.531-14A.5.5,0,0,0,6-13.5v.987a.5.5,0,0,0,.469.5A8.026,8.026,0,0,1,14-4.469a.5.5,0,0,0,.5.469h1a.5.5,0,0,0,.5-.531A10.024,10.024,0,0,0,6.531-14Zm.009,3A.5.5,0,0,0,6-10.5v1a.5.5,0,0,0,.462.5,4.991,4.991,0,0,1,4.528,4.538.5.5,0,0,0,.5.459h1.006a.506.506,0,0,0,.5-.541A7.031,7.031,0,0,0,6.541-11Z" transform="translate(0 14.001)" fill="#fff"/></svg>