<svg height="16" viewBox="0 0 16 16" width="16" xmlns="http://www.w3.org/2000/svg"><path d="m8.8404282.00400112c-.8525353 0-1.5422854.69505163-1.5422854 1.55413978 0 .017647.00466.034855.00466.0517-.00159 0-.00306-.00157-.00466-.00157-.7418883 0-1.3655688.5109613-1.542285 1.2032048-.032638.1283421-.049752.2622985-.049752.4010678 0 .1748654.028345.3425496.079291.4997687.208557.6409072.8066767 1.1045036 1.5127452 1.1045036h1.9900459c.6479587 0 1.1718131-.5206113 1.1909171-1.1687379.253931.2253999.583009.3666014.948382.3666014.796813 0 1.442782-.6517363 1.442782-1.453872 0-.079411-.01138-.1549001-.02332-.2303012.131343.049732.272475.0799.421331.0799.659102 0 1.194027-.5390357 1.194027-1.2032046 0-.66416907-.534925-1.20320477-1.194027-1.20320477-.366965 0-.690608.17010293-.909513.43240156-.284175-.26630814-.661822-.43240076-1.080529-.43240076-.499103 0-.939201.23513867-1.23134.5969026-.2825917-.36095896-.7153272-.59690013-1.2064698-.59690013zm-4.7263562 6.41709258v1.6042727c0 2.0518656-2.2869591 6.4213526-2.9850672 7.6766956-.1201991.216579-.19343232.34146-.1990048.344669h14.328323c-.0406-.02246-3.184072-5.614956-3.184072-8.0213646v-1.6042727h-1.592035v4.8128183c0 .442779-.356617.802137-.7960186.802137-.4394027 0-.7960188-.359358-.7960188-.802137s-.3566167-.802137-.7960183-.802137c-.4394021 0-.7960183.359358-.7960183.802137v1.604273c0 .442779-.3566167.802136-.7960183.802136-.4394021 0-.7960183-.359357-.7960183-.802136v-6.4170913z" fill="#fff"/></svg>