<svg height="15.998" viewBox="0 0 15.998 15.998" width="15.998" xmlns="http://www.w3.org/2000/svg"><path d="m15.709-5.719-2.509-2.512 1.494-1.5a1.051 1.051 0 0 0 0-1.484l-1.485-1.485a1.051 1.051 0 0 0 -1.484 0l-1.494 1.5-2.509-2.509a1 1 0 0 0 -.706-.291.989.989 0 0 0 -.7.291l-3.025 3.022a1 1 0 0 0 0 1.409l2.509 2.512-.306.306a5.955 5.955 0 0 0 -5.266.169.459.459 0 0 0 -.087.725l3.359 3.36-.556.556a.914.914 0 0 0 -.244-.05 1 1 0 0 0 -1 1 1 1 0 0 0 1 1 1 1 0 0 0 1-1 .914.914 0 0 0 -.05-.244l.556-.556 3.36 3.359a.458.458 0 0 0 .725-.087 5.955 5.955 0 0 0 .169-5.266l.309-.306 2.509 2.513a.994.994 0 0 0 .7.291.994.994 0 0 0 .7-.291l3.022-3.022a.993.993 0 0 0 .009-1.41zm-11-4.266 2.306-2.306 2.153 2.153-2.306 2.307zm7.275 7.275-2.153-2.152 2.306-2.306 2.153 2.153z" fill="#fff" transform="translate(-.002 14)"/></svg>